<?xml version="1.0" standalone="no"?>
<!DOCTYPE svg PUBLIC "-//W3C//DTD SVG 20010904//EN"
 "http://www.w3.org/TR/2001/REC-SVG-20010904/DTD/svg10.dtd">
<svg version="1.0" xmlns="http://www.w3.org/2000/svg"
 width="512.000000pt" height="512.000000pt" viewBox="0 0 512.000000 512.000000"
 preserveAspectRatio="xMidYMid meet">
<metadata>
Created by potrace 1.11, written by Peter Selinger 2001-2013
</metadata>
<g transform="translate(0.000000,512.000000) scale(0.100000,-0.100000)"
fill="#000000" stroke="none">
<path d="M2227 4434 c-312 -45 -609 -167 -890 -364 -118 -83 -352 -317 -436
-435 -186 -264 -301 -534 -357 -840 -15 -80 -19 -149 -19 -350 0 -220 3 -263
23 -362 85 -422 260 -751 557 -1048 203 -203 413 -343 662 -443 250 -100 474
-142 753 -142 441 0 810 118 1183 380 118 83 352 317 436 435 183 261 291 509
353 818 20 99 23 142 23 362 0 201 -4 270 -19 350 -56 306 -171 576 -357 840
-84 118 -318 352 -436 435 -286 201 -580 320 -902 364 -139 20 -437 19 -574 0z"/>
</g>
</svg>
